<?xml version="1.0" standalone="no"?>
<!DOCTYPE svg PUBLIC "-//W3C//DTD SVG 20010904//EN"
 "http://www.w3.org/TR/2001/REC-SVG-20010904/DTD/svg10.dtd">
<svg version="1.0" xmlns="http://www.w3.org/2000/svg"
 width="856.000000pt" height="856.000000pt" viewBox="0 0 856.000000 856.000000"
 preserveAspectRatio="xMidYMid meet">
<metadata>
Created by potrace 1.14, written by Peter Selinger 2001-2017
</metadata>
<g transform="translate(0.000000,856.000000) scale(0.100000,-0.100000)"
fill="#000000" stroke="none">
<path d="M5266 8064 c-32 -8 -88 -28 -125 -45 -62 -29 -139 -104 -1264 -1228
-659 -658 -1203 -1195 -1210 -1194 -7 1 -49 11 -94 22 -45 11 -92 22 -105 25
-13 2 -39 7 -58 11 -79 15 -250 29 -351 28 -82 0 -258 -12 -268 -17 -3 -2 -29
-6 -58 -10 -29 -3 -80 -13 -115 -21 -35 -9 -72 -18 -82 -20 -55 -13 -238 -77
-311 -110 -27 -13 -57 -26 -65 -29 -17 -7 -102 -55 -187 -106 -175 -104 -397
-305 -534 -485 -137 -178 -250 -390 -317 -591 -82 -244 -111 -434 -106 -689 2
-99 5 -193 8 -210 2 -16 7 -49 10 -73 27 -200 108 -442 212 -642 60 -114 181
-300 195 -300 5 0 9 -4 9 -10 0 -16 36 -56 165 -185 134 -135 169 -164 305
-257 92 -62 300 -173 384 -204 175 -65 369 -115 516 -132 85 -9 395 -9 485 1
66 7 185 30 302 58 l51 12 538 -538 c330 -330 561 -553 596 -575 89 -58 184
-85 303 -84 106 0 124 2 195 29 25 9 53 19 63 22 9 3 17 10 17 16 0 6 3 8 6 4
4 -3 32 14 63 38 83 64 4005 3993 4033 4040 63 104 91 220 84 342 -7 119 -50
234 -121 320 -41 50 -2679 2679 -2710 2701 -91 64 -181 93 -305 97 -57 1 -119
-3 -154 -11z"/>
</g>
</svg>
